# xmcd
#
# Track frame offsets:
# 150
# 12277
# 25392
# 36501
# 48720
# 63229
# 76580
# 89757
# 101547
# 123534
# 141589
# 156010
# 168961
# 179712
# 194556
# 209434
#
# Disc length: 2972 seconds
#
#
# Revision: 1
# Processed by: cddbd v1.5.2PL0 Copyright (c) Steve Scherf et al.
# Submitted via: FreeRIP 2.944 
#
DISCID=ea0b9a10
DTITLE=Roy Eldridge - Minor Jive
DYEAR=1900
DGENRE=Jazz
TTITLE0=Jump Through The Window
TTITLE1=The Gasser
TTITLE2=Stardust
TTITLE3=Minor Jive
TTITLE4=Don't Be That Way
TTITLE5=I Want to Be Happy
TTITLE6=Fiesta in Brass
TTITLE7=St. Louis Blues
TTITLE8=Flyin' on AV Pt 1
TTITLE9=Flyin' on AV Pt 2
TTITLE10=Fish Market
TTITLE11=Twilight Time
TTITLE12=St. Louis Blues
TTITLE13=I Can't Get Started
TTITLE14=Body of Soul
TTITLE15=After You've Gone
EXTD=
EXTT0=
EXTT1=
EXTT2=
EXTT3=
EXTT4=
EXTT5=
EXTT6=
EXTT7=
EXTT8=
EXTT9=
EXTT10=
EXTT11=
EXTT12=
EXTT13=
EXTT14=
EXTT15=
PLAYORDER=
